<mxfile host="app.diagrams.net" agent="Mozilla/5.0 (Macintosh; Intel Mac OS X 10_15_7) AppleWebKit/605.1.15 (KHTML, like Gecko) Version/18.1.1 Safari/605.1.15" version="26.0.3">
  <diagram name="Pagina-1" id="IwcVZU9Hw2LrSvY2pgSJ">
    <mxGraphModel grid="1" page="1" gridSize="10" guides="1" tooltips="1" connect="1" arrows="1" fold="1" pageScale="1" pageWidth="827" pageHeight="1169" math="0" shadow="0">
      <root>
        <mxCell id="0" />
        <mxCell id="1" parent="0" />
        <mxCell id="-dlARR5Joj8IzMeRutVb-1" value="&lt;font&gt;Driver&lt;/font&gt;" style="shape=folder;fontStyle=1;spacingTop=10;tabWidth=40;tabHeight=14;tabPosition=left;html=1;whiteSpace=wrap;fontSize=18;" vertex="1" parent="1">
          <mxGeometry x="40" y="40" width="160" height="120" as="geometry" />
        </mxCell>
        <mxCell id="-dlARR5Joj8IzMeRutVb-2" value="&lt;font&gt;Model&lt;/font&gt;" style="shape=folder;fontStyle=1;spacingTop=10;tabWidth=40;tabHeight=14;tabPosition=left;html=1;whiteSpace=wrap;color=#808080;fillColor=#f5f5f5;fontColor=#333333;strokeColor=#666666;fontSize=18;" vertex="1" parent="1">
          <mxGeometry x="160" y="720" width="160" height="120" as="geometry" />
        </mxCell>
        <mxCell id="-dlARR5Joj8IzMeRutVb-4" value="&lt;font&gt;Signup&lt;/font&gt;&lt;div&gt;&lt;font&gt;Submanager&lt;/font&gt;&lt;/div&gt;" style="shape=folder;fontStyle=1;spacingTop=10;tabWidth=40;tabHeight=14;tabPosition=left;html=1;whiteSpace=wrap;color=#808080;fillColor=#e1d5e7;strokeColor=#9673a6;fontSize=18;" vertex="1" parent="1">
          <mxGeometry x="40" y="440" width="160" height="120" as="geometry" />
        </mxCell>
        <mxCell id="-dlARR5Joj8IzMeRutVb-5" value="&lt;font&gt;Login&lt;/font&gt;&lt;div&gt;&lt;span&gt;Submanager&lt;/span&gt;&lt;/div&gt;" style="shape=folder;fontStyle=1;spacingTop=10;tabWidth=40;tabHeight=14;tabPosition=left;html=1;whiteSpace=wrap;color=#808080;fillColor=#e1d5e7;strokeColor=#9673a6;fontSize=18;" vertex="1" parent="1">
          <mxGeometry x="280" y="440" width="160" height="120" as="geometry" />
        </mxCell>
        <mxCell id="-dlARR5Joj8IzMeRutVb-6" value="" style="endArrow=none;html=1;rounded=0;entryX=0.5;entryY=1;entryDx=0;entryDy=0;entryPerimeter=0;exitX=0.5;exitY=0.125;exitDx=0;exitDy=0;exitPerimeter=0;fontSize=18;" edge="1" parent="1">
          <mxGeometry width="50" height="50" relative="1" as="geometry">
            <mxPoint x="119.57999999999998" y="455" as="sourcePoint" />
            <mxPoint x="119.57999999999998" y="360" as="targetPoint" />
          </mxGeometry>
        </mxCell>
        <mxCell id="-dlARR5Joj8IzMeRutVb-9" value="" style="endArrow=none;html=1;rounded=0;fontSize=18;" edge="1" parent="1">
          <mxGeometry width="50" height="50" relative="1" as="geometry">
            <mxPoint x="240" y="640" as="sourcePoint" />
            <mxPoint x="120" y="560" as="targetPoint" />
            <Array as="points">
              <mxPoint x="120" y="640" />
            </Array>
          </mxGeometry>
        </mxCell>
        <mxCell id="-dlARR5Joj8IzMeRutVb-10" value="" style="endArrow=none;html=1;rounded=0;fontSize=18;" edge="1" parent="1">
          <mxGeometry width="50" height="50" relative="1" as="geometry">
            <mxPoint x="240" y="640" as="sourcePoint" />
            <mxPoint x="360" y="560" as="targetPoint" />
            <Array as="points">
              <mxPoint x="360" y="640" />
            </Array>
          </mxGeometry>
        </mxCell>
        <mxCell id="-dlARR5Joj8IzMeRutVb-11" value="&lt;font&gt;Management&lt;/font&gt;&lt;div&gt;&lt;font&gt;Submanager&lt;/font&gt;&lt;/div&gt;" style="shape=folder;fontStyle=1;spacingTop=10;tabWidth=40;tabHeight=14;tabPosition=left;html=1;whiteSpace=wrap;color=#808080;fillColor=#e1d5e7;strokeColor=#9673a6;fontSize=18;" vertex="1" parent="1">
          <mxGeometry x="40" y="240" width="160" height="120" as="geometry" />
        </mxCell>
        <mxCell id="-dlARR5Joj8IzMeRutVb-12" value="" style="endArrow=none;html=1;rounded=0;entryX=0.5;entryY=1;entryDx=0;entryDy=0;entryPerimeter=0;exitX=0.5;exitY=0.125;exitDx=0;exitDy=0;exitPerimeter=0;fontSize=18;" edge="1" parent="1">
          <mxGeometry width="50" height="50" relative="1" as="geometry">
            <mxPoint x="119.5" y="255" as="sourcePoint" />
            <mxPoint x="119.5" y="160" as="targetPoint" />
          </mxGeometry>
        </mxCell>
        <mxCell id="IFw57sy5riDuWD_yftZP-1" value="" style="endArrow=none;html=1;rounded=0;entryX=0.5;entryY=1;entryDx=0;entryDy=0;entryPerimeter=0;exitX=0.5;exitY=0.125;exitDx=0;exitDy=0;exitPerimeter=0;fontSize=18;" edge="1" parent="1">
          <mxGeometry width="50" height="50" relative="1" as="geometry">
            <mxPoint x="239.5" y="735" as="sourcePoint" />
            <mxPoint x="239.5" y="640" as="targetPoint" />
          </mxGeometry>
        </mxCell>
      </root>
    </mxGraphModel>
  </diagram>
</mxfile>
